<svg width="26" height="26" viewBox="0 0 26 26" fill="none" xmlns="http://www.w3.org/2000/svg">
<g filter="url(#filter0_d_1590_349)">
<circle cx="13" cy="9" r="9" fill="#F0F0F0"/>
<path d="M12.25 10.4901H13.4688V10.4091C13.4858 9.42898 13.767 8.99006 14.4915 8.54261C15.2543 8.08239 15.723 7.43466 15.723 6.47585C15.723 5.09091 14.6747 4.15341 13.1108 4.15341C11.6747 4.15341 10.5241 4.9929 10.4688 6.52699H11.7642C11.8153 5.62358 12.4588 5.22727 13.1108 5.22727C13.8352 5.22727 14.4233 5.70881 14.4233 6.46307C14.4233 7.09801 14.027 7.54545 13.5199 7.8608C12.7273 8.34659 12.2585 8.82812 12.25 10.4091V10.4901ZM12.8935 13.081C13.358 13.081 13.7457 12.7017 13.7457 12.2287C13.7457 11.7642 13.358 11.3807 12.8935 11.3807C12.4247 11.3807 12.0412 11.7642 12.0412 12.2287C12.0412 12.7017 12.4247 13.081 12.8935 13.081Z" fill="#303030"/>
</g>
<defs>
<filter id="filter0_d_1590_349" x="0" y="0" width="26" height="26" filterUnits="userSpaceOnUse" color-interpolation-filters="sRGB">
<feFlood flood-opacity="0" result="BackgroundImageFix"/>
<feColorMatrix in="SourceAlpha" type="matrix" values="0 0 0 0 0 0 0 0 0 0 0 0 0 0 0 0 0 0 127 0" result="hardAlpha"/>
<feOffset dy="4"/>
<feGaussianBlur stdDeviation="2"/>
<feComposite in2="hardAlpha" operator="out"/>
<feColorMatrix type="matrix" values="0 0 0 0 0 0 0 0 0 0 0 0 0 0 0 0 0 0 0.25 0"/>
<feBlend mode="normal" in2="BackgroundImageFix" result="effect1_dropShadow_1590_349"/>
<feBlend mode="normal" in="SourceGraphic" in2="effect1_dropShadow_1590_349" result="shape"/>
</filter>
</defs>
</svg>
